<svg xmlns="http://www.w3.org/2000/svg" viewBox="0 0 512 512" shape-rendering="geometricPrecision">
  <defs>
    <linearGradient id="bg-base" x1="0" y1="0" x2="0" y2="1">
      <stop offset="0" stop-color="#1a2a36"/>
      <stop offset="1" stop-color="#101a22"/>
    </linearGradient>
    <radialGradient id="bg-glow-top" cx="50%" cy="0%" r="75%">
      <stop offset="0" stop-color="#2eb3ed" stop-opacity="0.28"/>
      <stop offset="0.55" stop-color="#1a8fbf" stop-opacity="0.08"/>
      <stop offset="1" stop-color="#101a22" stop-opacity="0"/>
    </radialGradient>
    <radialGradient id="bg-glow-left" cx="0%" cy="12%" r="55%">
      <stop offset="0" stop-color="#2eb3ed" stop-opacity="0.18"/>
      <stop offset="1" stop-color="#101a22" stop-opacity="0"/>
    </radialGradient>
    <radialGradient id="bg-glow-right" cx="100%" cy="12%" r="55%">
      <stop offset="0" stop-color="#2eb3ed" stop-opacity="0.18"/>
      <stop offset="1" stop-color="#101a22" stop-opacity="0"/>
    </radialGradient>
    <linearGradient id="bg-shine" x1="0" y1="0" x2="0" y2="1">
      <stop offset="0" stop-color="#ffffff" stop-opacity="0.1"/>
      <stop offset="0.18" stop-color="#ffffff" stop-opacity="0"/>
      <stop offset="1" stop-color="#ffffff" stop-opacity="0"/>
    </linearGradient>
    <linearGradient id="i-top" x1="0" y1="0" x2="0" y2="1">
      <stop offset="0" stop-color="#f3f9fd"/>
      <stop offset="1" stop-color="#e4eef6"/>
    </linearGradient>
    <linearGradient id="i-mid" x1="0" y1="0" x2="0" y2="1">
      <stop offset="0" stop-color="#b5d0e4"/>
      <stop offset="1" stop-color="#cee2f0"/>
    </linearGradient>
    <linearGradient id="i-bot" x1="0" y1="0" x2="0" y2="1">
      <stop offset="0" stop-color="#2eb3ed"/>
      <stop offset="1" stop-color="#4dc1ef"/>
    </linearGradient>
  </defs>

  <rect width="512" height="512" fill="url(#bg-base)"/>
  <rect width="512" height="512" fill="url(#bg-glow-top)"/>
  <rect width="512" height="512" fill="url(#bg-glow-left)"/>
  <rect width="512" height="512" fill="url(#bg-glow-right)"/>
  <rect width="512" height="512" fill="url(#bg-shine)"/>

  <g transform="translate(256 256) scale(0.166) translate(-1500 -1158)">
    <path d="M 600.07 1429.35 Q 557.66 1411.27 535.72 1420.71 L 91.94 1611.56 Q 70.00 1621.00 134.35 1648.67 L 1435.65 2208.32 Q 1500.00 2236.00 1564.35 2208.32 L 2865.65 1648.67 Q 2930.00 1621.00 2908.06 1611.56 L 2464.28 1420.71 Q 2442.34 1411.27 2399.93 1429.35 L 1542.41 1794.92 Q 1500.00 1813.00 1457.59 1794.92 Z" fill="url(#i-bot)"/>
    <path d="M 600.07 1433.16 Q 557.67 1415.08 536.12 1424.34 L 100.41 1611.73 Q 78.86 1621.00 142.81 1648.50 L 1436.05 2204.69 Q 1500.00 2232.19 1563.95 2204.69 L 2857.19 1648.50 Q 2921.14 1621.00 2899.59 1611.73 L 2463.88 1424.34 Q 2442.33 1415.08 2399.93 1433.16 L 1542.40 1798.73 Q 1500.00 1816.80 1457.60 1798.73 Z M 600.06 1425.54 Q 557.66 1407.46 535.31 1417.07 L 83.48 1611.39 Q 61.14 1621.00 125.89 1648.85 L 1435.25 2211.96 Q 1500.00 2239.81 1564.75 2211.96 L 2874.11 1648.85 Q 2938.86 1621.00 2916.52 1611.39 L 2464.69 1417.07 Q 2442.34 1407.46 2399.94 1425.54 L 1542.41 1791.12 Q 1500.00 1809.20 1457.59 1791.12 Z" fill="#34495e" fill-rule="evenodd"/>
    <path d="M 600.07 966.35 Q 557.66 948.27 535.72 957.71 L 91.94 1148.56 Q 70.00 1158.00 134.35 1185.67 L 1435.65 1745.33 Q 1500.00 1773.00 1564.35 1745.33 L 2865.65 1185.67 Q 2930.00 1158.00 2908.06 1148.56 L 2464.28 957.71 Q 2442.34 948.27 2399.93 966.35 L 1542.41 1331.92 Q 1500.00 1350.00 1457.59 1331.92 Z" fill="url(#i-mid)"/>
    <path d="M 600.07 970.16 Q 557.67 952.08 536.12 961.34 L 100.41 1148.73 Q 78.86 1158.00 142.81 1185.50 L 1436.05 1741.69 Q 1500.00 1769.19 1563.95 1741.69 L 2857.19 1185.50 Q 2921.14 1158.00 2899.59 1148.73 L 2463.88 961.34 Q 2442.33 952.08 2399.93 970.16 L 1542.40 1335.73 Q 1500.00 1353.80 1457.60 1335.73 Z M 600.06 962.54 Q 557.66 944.46 535.31 954.07 L 83.48 1148.39 Q 61.14 1158.00 125.89 1185.85 L 1435.25 1748.96 Q 1500.00 1776.81 1564.75 1748.96 L 2874.11 1185.85 Q 2938.86 1158.00 2916.52 1148.39 L 2464.69 954.07 Q 2442.34 944.46 2399.94 962.54 L 1542.41 1328.12 Q 1500.00 1346.20 1457.59 1328.12 Z" fill="#34495e" fill-rule="evenodd"/>
    <path d="M 1435.65 107.67 Q 1500.00 80.00 1564.35 107.67 L 2865.65 667.33 Q 2930.00 695.00 2865.65 722.67 L 1564.35 1282.33 Q 1500.00 1310.00 1435.65 1282.33 L 134.35 722.67 Q 70.00 695.00 134.35 667.33 Z" fill="url(#i-top)"/>
    <path d="M 1435.25 104.04 Q 1500.00 76.19 1564.75 104.04 L 2874.11 667.15 Q 2938.86 695.00 2874.11 722.85 L 1564.75 1285.96 Q 1500.00 1313.81 1435.25 1285.96 L 125.89 722.85 Q 61.14 695.00 125.89 667.15 Z M 1436.05 111.31 Q 1500.00 83.81 1563.95 111.31 L 2857.19 667.50 Q 2921.14 695.00 2857.19 722.50 L 1563.95 1278.69 Q 1500.00 1306.19 1436.05 1278.69 L 142.81 722.50 Q 78.86 695.00 142.81 667.50 Z" fill="#34495e" fill-rule="evenodd"/>
  </g>
</svg>
